<mxfile host="app.diagrams.net" agent="Mozilla/5.0 (Windows NT 10.0; Win64; x64) AppleWebKit/537.36 (KHTML, like Gecko) Chrome/133.0.0.0 Safari/537.36 Edg/133.0.0.0" version="26.0.14">
  <diagram name="Page-1" id="cAug1g8ceRs_T_u1OyaA">
    <mxGraphModel dx="1226" dy="665" grid="1" gridSize="10" guides="1" tooltips="1" connect="1" arrows="1" fold="1" page="1" pageScale="1" pageWidth="827" pageHeight="1169" math="0" shadow="0">
      <root>
        <mxCell id="0" />
        <mxCell id="1" parent="0" />
        <mxCell id="w-x2_361Rt0CLVV8uH2W-1" value="AceNote: Home" style="whiteSpace=wrap;strokeWidth=2;" vertex="1" parent="1">
          <mxGeometry x="223" y="141" width="260" height="78" as="geometry" />
        </mxCell>
        <mxCell id="w-x2_361Rt0CLVV8uH2W-2" style="edgeStyle=orthogonalEdgeStyle;rounded=0;orthogonalLoop=1;jettySize=auto;html=1;entryX=1;entryY=0.5;entryDx=0;entryDy=0;" edge="1" parent="1" source="w-x2_361Rt0CLVV8uH2W-6" target="w-x2_361Rt0CLVV8uH2W-8">
          <mxGeometry relative="1" as="geometry" />
        </mxCell>
        <mxCell id="w-x2_361Rt0CLVV8uH2W-3" value="" style="edgeStyle=orthogonalEdgeStyle;rounded=0;orthogonalLoop=1;jettySize=auto;html=1;" edge="1" parent="1" source="w-x2_361Rt0CLVV8uH2W-6" target="w-x2_361Rt0CLVV8uH2W-31">
          <mxGeometry relative="1" as="geometry">
            <Array as="points">
              <mxPoint x="410" y="568" />
            </Array>
          </mxGeometry>
        </mxCell>
        <mxCell id="w-x2_361Rt0CLVV8uH2W-4" style="edgeStyle=orthogonalEdgeStyle;rounded=0;orthogonalLoop=1;jettySize=auto;html=1;exitX=1;exitY=1;exitDx=0;exitDy=0;entryX=0;entryY=0.5;entryDx=0;entryDy=0;" edge="1" parent="1" source="w-x2_361Rt0CLVV8uH2W-6" target="w-x2_361Rt0CLVV8uH2W-32">
          <mxGeometry relative="1" as="geometry" />
        </mxCell>
        <mxCell id="w-x2_361Rt0CLVV8uH2W-5" style="edgeStyle=orthogonalEdgeStyle;rounded=0;orthogonalLoop=1;jettySize=auto;html=1;exitX=1;exitY=0.5;exitDx=0;exitDy=0;entryX=0;entryY=0.5;entryDx=0;entryDy=0;" edge="1" parent="1" source="w-x2_361Rt0CLVV8uH2W-6" target="w-x2_361Rt0CLVV8uH2W-36">
          <mxGeometry relative="1" as="geometry" />
        </mxCell>
        <mxCell id="w-x2_361Rt0CLVV8uH2W-6" value="DashBoard" style="whiteSpace=wrap;strokeWidth=2;" vertex="1" parent="1">
          <mxGeometry x="283.5" y="621" width="139" height="54" as="geometry" />
        </mxCell>
        <mxCell id="w-x2_361Rt0CLVV8uH2W-7" style="edgeStyle=orthogonalEdgeStyle;rounded=0;orthogonalLoop=1;jettySize=auto;html=1;entryX=0.12;entryY=0.616;entryDx=0;entryDy=0;entryPerimeter=0;" edge="1" parent="1" source="w-x2_361Rt0CLVV8uH2W-8" target="w-x2_361Rt0CLVV8uH2W-29">
          <mxGeometry relative="1" as="geometry">
            <mxPoint x="200" y="731" as="targetPoint" />
            <Array as="points">
              <mxPoint x="140" y="750" />
            </Array>
          </mxGeometry>
        </mxCell>
        <mxCell id="w-x2_361Rt0CLVV8uH2W-8" value="Share note" style="whiteSpace=wrap;strokeWidth=2;" vertex="1" parent="1">
          <mxGeometry x="38" y="621" width="185" height="54" as="geometry" />
        </mxCell>
        <mxCell id="w-x2_361Rt0CLVV8uH2W-9" value="Notes Library" style="whiteSpace=wrap;strokeWidth=2;" vertex="1" parent="1">
          <mxGeometry x="270.5" y="811" width="165" height="54" as="geometry" />
        </mxCell>
        <mxCell id="w-x2_361Rt0CLVV8uH2W-10" value="User Login" style="curved=1;startArrow=none;endArrow=block;exitX=0.5;exitY=1;" edge="1" parent="1" source="w-x2_361Rt0CLVV8uH2W-1">
          <mxGeometry relative="1" as="geometry">
            <Array as="points" />
            <mxPoint x="353" y="251" as="targetPoint" />
            <mxPoint as="offset" />
          </mxGeometry>
        </mxCell>
        <mxCell id="w-x2_361Rt0CLVV8uH2W-11" value="" style="edgeStyle=orthogonalEdgeStyle;rounded=0;orthogonalLoop=1;jettySize=auto;html=1;entryX=0;entryY=0.5;entryDx=0;entryDy=0;" edge="1" parent="1" target="w-x2_361Rt0CLVV8uH2W-17">
          <mxGeometry relative="1" as="geometry">
            <mxPoint x="379" y="290.5" as="sourcePoint" />
            <mxPoint x="440" y="291" as="targetPoint" />
            <Array as="points">
              <mxPoint x="402" y="290" />
              <mxPoint x="425" y="291" />
            </Array>
          </mxGeometry>
        </mxCell>
        <mxCell id="w-x2_361Rt0CLVV8uH2W-12" value="True" style="edgeLabel;html=1;align=center;verticalAlign=middle;resizable=0;points=[];" vertex="1" connectable="0" parent="w-x2_361Rt0CLVV8uH2W-11">
          <mxGeometry x="0.014" y="1" relative="1" as="geometry">
            <mxPoint as="offset" />
          </mxGeometry>
        </mxCell>
        <mxCell id="w-x2_361Rt0CLVV8uH2W-13" value="" style="edgeStyle=orthogonalEdgeStyle;rounded=0;orthogonalLoop=1;jettySize=auto;html=1;" edge="1" parent="1" source="w-x2_361Rt0CLVV8uH2W-16" target="w-x2_361Rt0CLVV8uH2W-1">
          <mxGeometry relative="1" as="geometry" />
        </mxCell>
        <mxCell id="w-x2_361Rt0CLVV8uH2W-14" style="edgeStyle=orthogonalEdgeStyle;rounded=0;orthogonalLoop=1;jettySize=auto;html=1;exitX=0.5;exitY=1;exitDx=0;exitDy=0;entryX=0.5;entryY=0;entryDx=0;entryDy=0;" edge="1" parent="1" source="w-x2_361Rt0CLVV8uH2W-16" target="w-x2_361Rt0CLVV8uH2W-22">
          <mxGeometry relative="1" as="geometry" />
        </mxCell>
        <mxCell id="w-x2_361Rt0CLVV8uH2W-15" value="False" style="edgeLabel;html=1;align=center;verticalAlign=middle;resizable=0;points=[];" vertex="1" connectable="0" parent="w-x2_361Rt0CLVV8uH2W-14">
          <mxGeometry x="-0.2452" relative="1" as="geometry">
            <mxPoint as="offset" />
          </mxGeometry>
        </mxCell>
        <mxCell id="w-x2_361Rt0CLVV8uH2W-16" value="&lt;font size=&quot;1&quot;&gt;New user?&lt;/font&gt;" style="rhombus;whiteSpace=wrap;html=1;" vertex="1" parent="1">
          <mxGeometry x="313" y="251" width="80" height="80" as="geometry" />
        </mxCell>
        <mxCell id="w-x2_361Rt0CLVV8uH2W-17" value="&lt;font style=&quot;font-size: 11px;&quot;&gt;Sign up&lt;/font&gt;" style="rounded=0;whiteSpace=wrap;html=1;strokeWidth=2;" vertex="1" parent="1">
          <mxGeometry x="542.5" y="266" width="50" height="50" as="geometry" />
        </mxCell>
        <mxCell id="w-x2_361Rt0CLVV8uH2W-18" style="edgeStyle=orthogonalEdgeStyle;rounded=0;orthogonalLoop=1;jettySize=auto;html=1;exitX=0.16;exitY=0.55;exitDx=0;exitDy=0;exitPerimeter=0;entryX=1;entryY=0;entryDx=0;entryDy=0;" edge="1" parent="1" source="w-x2_361Rt0CLVV8uH2W-20" target="w-x2_361Rt0CLVV8uH2W-22">
          <mxGeometry relative="1" as="geometry">
            <Array as="points">
              <mxPoint x="467" y="404" />
              <mxPoint x="467" y="401" />
              <mxPoint x="413" y="401" />
            </Array>
          </mxGeometry>
        </mxCell>
        <mxCell id="w-x2_361Rt0CLVV8uH2W-19" value="Redirects" style="edgeLabel;html=1;align=center;verticalAlign=middle;resizable=0;points=[];" vertex="1" connectable="0" parent="w-x2_361Rt0CLVV8uH2W-18">
          <mxGeometry x="-0.075" y="2" relative="1" as="geometry">
            <mxPoint x="14" y="-1" as="offset" />
          </mxGeometry>
        </mxCell>
        <mxCell id="w-x2_361Rt0CLVV8uH2W-20" value="user&amp;nbsp;&lt;div&gt;credential&lt;div&gt;Database&lt;/div&gt;&lt;/div&gt;" style="ellipse;shape=cloud;whiteSpace=wrap;html=1;" vertex="1" parent="1">
          <mxGeometry x="510" y="371" width="130" height="80" as="geometry" />
        </mxCell>
        <mxCell id="w-x2_361Rt0CLVV8uH2W-21" style="edgeStyle=orthogonalEdgeStyle;rounded=0;orthogonalLoop=1;jettySize=auto;html=1;exitX=0.5;exitY=1;exitDx=0;exitDy=0;entryX=0.5;entryY=0;entryDx=0;entryDy=0;" edge="1" parent="1" source="w-x2_361Rt0CLVV8uH2W-22" target="w-x2_361Rt0CLVV8uH2W-27">
          <mxGeometry relative="1" as="geometry" />
        </mxCell>
        <mxCell id="w-x2_361Rt0CLVV8uH2W-22" value="Sign in" style="rounded=0;whiteSpace=wrap;html=1;strokeWidth=2;" vertex="1" parent="1">
          <mxGeometry x="293" y="371" width="120" height="60" as="geometry" />
        </mxCell>
        <mxCell id="w-x2_361Rt0CLVV8uH2W-23" style="edgeStyle=orthogonalEdgeStyle;rounded=0;orthogonalLoop=1;jettySize=auto;html=1;exitX=0.5;exitY=1;exitDx=0;exitDy=0;" edge="1" parent="1" source="w-x2_361Rt0CLVV8uH2W-27" target="w-x2_361Rt0CLVV8uH2W-6">
          <mxGeometry relative="1" as="geometry" />
        </mxCell>
        <mxCell id="w-x2_361Rt0CLVV8uH2W-24" value="True" style="edgeLabel;html=1;align=center;verticalAlign=middle;resizable=0;points=[];" vertex="1" connectable="0" parent="w-x2_361Rt0CLVV8uH2W-23">
          <mxGeometry x="-0.4333" relative="1" as="geometry">
            <mxPoint as="offset" />
          </mxGeometry>
        </mxCell>
        <mxCell id="w-x2_361Rt0CLVV8uH2W-25" style="edgeStyle=orthogonalEdgeStyle;rounded=0;orthogonalLoop=1;jettySize=auto;html=1;entryX=1;entryY=0.5;entryDx=0;entryDy=0;" edge="1" parent="1" source="w-x2_361Rt0CLVV8uH2W-27" target="w-x2_361Rt0CLVV8uH2W-17">
          <mxGeometry relative="1" as="geometry">
            <Array as="points">
              <mxPoint x="740" y="526" />
              <mxPoint x="740" y="291" />
            </Array>
          </mxGeometry>
        </mxCell>
        <mxCell id="w-x2_361Rt0CLVV8uH2W-26" value="False---------- : show error : show sign up" style="edgeLabel;html=1;align=center;verticalAlign=middle;resizable=0;points=[];" vertex="1" connectable="0" parent="w-x2_361Rt0CLVV8uH2W-25">
          <mxGeometry x="-0.8743" y="1" relative="1" as="geometry">
            <mxPoint x="74" y="1" as="offset" />
          </mxGeometry>
        </mxCell>
        <mxCell id="w-x2_361Rt0CLVV8uH2W-27" value="&lt;font size=&quot;1&quot;&gt;is user credential&lt;br&gt;exist in DB ?&lt;/font&gt;" style="rhombus;whiteSpace=wrap;html=1;" vertex="1" parent="1">
          <mxGeometry x="298" y="471" width="110" height="110" as="geometry" />
        </mxCell>
        <mxCell id="w-x2_361Rt0CLVV8uH2W-28" style="edgeStyle=orthogonalEdgeStyle;rounded=0;orthogonalLoop=1;jettySize=auto;html=1;" edge="1" parent="1" source="w-x2_361Rt0CLVV8uH2W-29" target="w-x2_361Rt0CLVV8uH2W-9">
          <mxGeometry relative="1" as="geometry" />
        </mxCell>
        <mxCell id="w-x2_361Rt0CLVV8uH2W-29" value="Files DB" style="ellipse;shape=cloud;whiteSpace=wrap;html=1;" vertex="1" parent="1">
          <mxGeometry x="293" y="701" width="120" height="80" as="geometry" />
        </mxCell>
        <mxCell id="w-x2_361Rt0CLVV8uH2W-30" style="edgeStyle=orthogonalEdgeStyle;rounded=0;orthogonalLoop=1;jettySize=auto;html=1;exitX=0.5;exitY=1;exitDx=0;exitDy=0;entryX=0.471;entryY=0.095;entryDx=0;entryDy=0;entryPerimeter=0;" edge="1" parent="1" source="w-x2_361Rt0CLVV8uH2W-6" target="w-x2_361Rt0CLVV8uH2W-29">
          <mxGeometry relative="1" as="geometry" />
        </mxCell>
        <mxCell id="w-x2_361Rt0CLVV8uH2W-31" value="User Profile" style="whiteSpace=wrap;strokeWidth=2;" vertex="1" parent="1">
          <mxGeometry x="453.5" y="541" width="139" height="54" as="geometry" />
        </mxCell>
        <mxCell id="w-x2_361Rt0CLVV8uH2W-32" value="Private Notes" style="rounded=0;whiteSpace=wrap;html=1;strokeWidth=2;" vertex="1" parent="1">
          <mxGeometry x="480" y="701" width="120" height="60" as="geometry" />
        </mxCell>
        <mxCell id="w-x2_361Rt0CLVV8uH2W-33" value="User DB" style="ellipse;shape=cloud;whiteSpace=wrap;html=1;" vertex="1" parent="1">
          <mxGeometry x="670" y="701" width="120" height="80" as="geometry" />
        </mxCell>
        <mxCell id="w-x2_361Rt0CLVV8uH2W-34" style="edgeStyle=orthogonalEdgeStyle;rounded=0;orthogonalLoop=1;jettySize=auto;html=1;entryX=0.25;entryY=0.25;entryDx=0;entryDy=0;entryPerimeter=0;" edge="1" parent="1" source="w-x2_361Rt0CLVV8uH2W-31" target="w-x2_361Rt0CLVV8uH2W-33">
          <mxGeometry relative="1" as="geometry" />
        </mxCell>
        <mxCell id="w-x2_361Rt0CLVV8uH2W-35" style="edgeStyle=orthogonalEdgeStyle;rounded=0;orthogonalLoop=1;jettySize=auto;html=1;entryX=0.16;entryY=0.55;entryDx=0;entryDy=0;entryPerimeter=0;" edge="1" parent="1" source="w-x2_361Rt0CLVV8uH2W-32" target="w-x2_361Rt0CLVV8uH2W-33">
          <mxGeometry relative="1" as="geometry" />
        </mxCell>
        <mxCell id="w-x2_361Rt0CLVV8uH2W-36" value="Bookmarked&lt;div&gt;Notes&lt;/div&gt;" style="rounded=0;whiteSpace=wrap;html=1;strokeWidth=2;" vertex="1" parent="1">
          <mxGeometry x="480" y="618" width="120" height="60" as="geometry" />
        </mxCell>
        <mxCell id="w-x2_361Rt0CLVV8uH2W-37" style="edgeStyle=orthogonalEdgeStyle;rounded=0;orthogonalLoop=1;jettySize=auto;html=1;entryX=0.625;entryY=0.2;entryDx=0;entryDy=0;entryPerimeter=0;" edge="1" parent="1" source="w-x2_361Rt0CLVV8uH2W-36" target="w-x2_361Rt0CLVV8uH2W-33">
          <mxGeometry relative="1" as="geometry" />
        </mxCell>
        <mxCell id="w-x2_361Rt0CLVV8uH2W-38" style="edgeStyle=orthogonalEdgeStyle;rounded=0;orthogonalLoop=1;jettySize=auto;html=1;entryX=0.445;entryY=0.129;entryDx=0;entryDy=0;entryPerimeter=0;" edge="1" parent="1" source="w-x2_361Rt0CLVV8uH2W-17" target="w-x2_361Rt0CLVV8uH2W-20">
          <mxGeometry relative="1" as="geometry" />
        </mxCell>
        <mxCell id="w-x2_361Rt0CLVV8uH2W-39" value="Save user credential in cloud" style="edgeLabel;html=1;align=center;verticalAlign=middle;resizable=0;points=[];" vertex="1" connectable="0" parent="w-x2_361Rt0CLVV8uH2W-38">
          <mxGeometry x="-0.1675" relative="1" as="geometry">
            <mxPoint x="-1" as="offset" />
          </mxGeometry>
        </mxCell>
      </root>
    </mxGraphModel>
  </diagram>
</mxfile>
